REM DIRINDEX 1\2,1\3,1\4,1\5,1\6
REM DIRNAME cjc091,folder01,folder02,folder03,folder04,folder05
TITLE ""
FILE "CD2-49.mp3" MP3
  TRACK 01 AUDIO
    TITLE "6:cjc091_2452"
    INDEX 01 00:00:00
  TRACK 02 AUDIO
    TITLE "0:"
    INDEX 01 00:02:12
  TRACK 03 AUDIO
    TITLE "2:cjc091_2453"
    INDEX 01 00:03:39
  TRACK 04 AUDIO
    TITLE "0:"
    INDEX 01 00:04:74
  TRACK 05 AUDIO
    TITLE "3:cjc091_2454"
    INDEX 01 00:05:24
  TRACK 06 AUDIO
    TITLE "0:"
    INDEX 01 00:06:71
  TRACK 07 AUDIO
    TITLE "4:cjc091_2455"
    INDEX 01 00:07:25
  TRACK 08 AUDIO
    TITLE "0:"
    INDEX 01 00:11:15
  TRACK 09 AUDIO
    TITLE "2:cjc091_2456"
    INDEX 01 00:12:30
  TRACK 10 AUDIO
    TITLE "0:"
    INDEX 01 00:13:55
  TRACK 11 AUDIO
    TITLE "3:cjc091_2457"
    INDEX 01 00:13:73
  TRACK 12 AUDIO
    TITLE "0:"
    INDEX 01 00:15:19
  TRACK 13 AUDIO
    TITLE "4:cjc091_2458"
    INDEX 01 00:15:44
  TRACK 14 AUDIO
    TITLE "0:"
    INDEX 01 00:20:14
  TRACK 15 AUDIO
    TITLE "2:cjc091_2459"
    INDEX 01 00:21:33
  TRACK 16 AUDIO
    TITLE "0:"
    INDEX 01 00:23:65
  TRACK 17 AUDIO
    TITLE "3:cjc091_2460"
    INDEX 01 00:24:10
  TRACK 18 AUDIO
    TITLE "0:"
    INDEX 01 00:26:18
  TRACK 19 AUDIO
    TITLE "4:cjc091_2461"
    INDEX 01 00:26:42
  TRACK 20 AUDIO
    TITLE "0:"
    INDEX 01 00:30:34
  TRACK 21 AUDIO
    TITLE "2:cjc091_2462"
    INDEX 01 00:31:57
  TRACK 22 AUDIO
    TITLE "0:"
    INDEX 01 00:32:64
  TRACK 23 AUDIO
    TITLE "3:cjc091_2463"
    INDEX 01 00:33:13
  TRACK 24 AUDIO
    TITLE "0:"
    INDEX 01 00:34:65
  TRACK 25 AUDIO
    TITLE "4:cjc091_2464"
    INDEX 01 00:35:04
  TRACK 26 AUDIO
    TITLE "0:"
    INDEX 01 00:38:61
  TRACK 27 AUDIO
    TITLE "2:cjc091_2465"
    INDEX 01 00:40:03
  TRACK 28 AUDIO
    TITLE "0:"
    INDEX 01 00:41:28
  TRACK 29 AUDIO
    TITLE "3:cjc091_2466"
    INDEX 01 00:41:32
  TRACK 30 AUDIO
    TITLE "0:"
    INDEX 01 00:42:55
  TRACK 31 AUDIO
    TITLE "4:cjc091_2467"
    INDEX 01 00:43:05
  TRACK 32 AUDIO
    TITLE "0:"
    INDEX 01 00:46:25
  TRACK 33 AUDIO
    TITLE "2:cjc091_2468"
    INDEX 01 00:47:34
  TRACK 34 AUDIO
    TITLE "0:"
    INDEX 01 00:49:43
  TRACK 35 AUDIO
    TITLE "3:cjc091_2469"
    INDEX 01 00:49:61
  TRACK 36 AUDIO
    TITLE "0:"
    INDEX 01 00:51:42
  TRACK 37 AUDIO
    TITLE "4:cjc091_2470"
    INDEX 01 00:51:69
  TRACK 38 AUDIO
    TITLE "0:"
    INDEX 01 00:55:67
  TRACK 39 AUDIO
    TITLE "2:cjc091_2471"
    INDEX 01 00:57:05
  TRACK 40 AUDIO
    TITLE "0:"
    INDEX 01 00:58:42
  TRACK 41 AUDIO
    TITLE "3:cjc091_2472"
    INDEX 01 00:58:69
  TRACK 42 AUDIO
    TITLE "0:"
    INDEX 01 01:00:60
  TRACK 43 AUDIO
    TITLE "4:cjc091_2473"
    INDEX 01 01:01:11
  TRACK 44 AUDIO
    TITLE "0:"
    INDEX 01 01:04:70
  TRACK 45 AUDIO
    TITLE "2:cjc091_2474"
    INDEX 01 01:06:06
  TRACK 46 AUDIO
    TITLE "0:"
    INDEX 01 01:07:27
  TRACK 47 AUDIO
    TITLE "3:cjc091_2475"
    INDEX 01 01:07:31
  TRACK 48 AUDIO
    TITLE "0:"
    INDEX 01 01:08:56
  TRACK 49 AUDIO
    TITLE "4:cjc091_2476"
    INDEX 01 01:09:03
  TRACK 50 AUDIO
    TITLE "0:"
    INDEX 01 01:11:68
  TRACK 51 AUDIO
    TITLE "2:cjc091_2477"
    INDEX 01 01:13:12
  TRACK 52 AUDIO
    TITLE "0:"
    INDEX 01 01:14:57
  TRACK 53 AUDIO
    TITLE "3:cjc091_2478"
    INDEX 01 01:15:01
  TRACK 54 AUDIO
    TITLE "0:"
    INDEX 01 01:16:65
  TRACK 55 AUDIO
    TITLE "4:cjc091_2479"
    INDEX 01 01:17:10
  TRACK 56 AUDIO
    TITLE "0:"
    INDEX 01 01:20:44
  TRACK 57 AUDIO
    TITLE "2:cjc091_2480"
    INDEX 01 01:21:63
  TRACK 58 AUDIO
    TITLE "0:"
    INDEX 01 01:23:11
  TRACK 59 AUDIO
    TITLE "3:cjc091_2481"
    INDEX 01 01:23:26
  TRACK 60 AUDIO
    TITLE "0:"
    INDEX 01 01:25:43
  TRACK 61 AUDIO
    TITLE "4:cjc091_2482"
    INDEX 01 01:25:68
  TRACK 62 AUDIO
    TITLE "0:"
    INDEX 01 01:28:43
  TRACK 63 AUDIO
    TITLE "2:cjc091_2483"
    INDEX 01 01:29:54
  TRACK 64 AUDIO
    TITLE "0:"
    INDEX 01 01:31:61
  TRACK 65 AUDIO
    TITLE "3:cjc091_2484"
    INDEX 01 01:32:06
  TRACK 66 AUDIO
    TITLE "0:"
    INDEX 01 01:33:64
  TRACK 67 AUDIO
    TITLE "4:cjc091_2485"
    INDEX 01 01:34:14
  TRACK 68 AUDIO
    TITLE "0:"
    INDEX 01 01:37:21
  TRACK 69 AUDIO
    TITLE "2:cjc091_2486"
    INDEX 01 01:38:42
  TRACK 70 AUDIO
    TITLE "0:"
    INDEX 01 01:39:70
  TRACK 71 AUDIO
    TITLE "3:cjc091_2487"
    INDEX 01 01:40:09
  TRACK 72 AUDIO
    TITLE "0:"
    INDEX 01 01:41:57
  TRACK 73 AUDIO
    TITLE "4:cjc091_2488"
    INDEX 01 01:42:08
  TRACK 74 AUDIO
    TITLE "0:"
    INDEX 01 01:45:36
  TRACK 75 AUDIO
    TITLE "2:cjc091_2489"
    INDEX 01 01:46:53
  TRACK 76 AUDIO
    TITLE "0:"
    INDEX 01 01:48:36
  TRACK 77 AUDIO
    TITLE "3:cjc091_2490"
    INDEX 01 01:48:60
  TRACK 78 AUDIO
    TITLE "0:"
    INDEX 01 01:50:70
  TRACK 79 AUDIO
    TITLE "4:cjc091_2491"
    INDEX 01 01:51:17
  TRACK 80 AUDIO
    TITLE "0:"
    INDEX 01 01:55:40
  TRACK 81 AUDIO
    TITLE "2:cjc091_2492"
    INDEX 01 01:56:61
  TRACK 82 AUDIO
    TITLE "0:"
    INDEX 01 01:58:05
  TRACK 83 AUDIO
    TITLE "3:cjc091_2493"
    INDEX 01 01:58:32
  TRACK 84 AUDIO
    TITLE "0:"
    INDEX 01 01:59:30
  TRACK 85 AUDIO
    TITLE "4:cjc091_2494"
    INDEX 01 01:59:55
  TRACK 86 AUDIO
    TITLE "0:"
    INDEX 01 02:01:52
  TRACK 87 AUDIO
    TITLE "2:cjc091_2495"
    INDEX 01 02:02:66
  TRACK 88 AUDIO
    TITLE "0:"
    INDEX 01 02:04:27
  TRACK 89 AUDIO
    TITLE "3:cjc091_2496"
    INDEX 01 02:04:51
  TRACK 90 AUDIO
    TITLE "0:"
    INDEX 01 02:06:30
  TRACK 91 AUDIO
    TITLE "4:cjc091_2497"
    INDEX 01 02:06:61
  TRACK 92 AUDIO
    TITLE "0:"
    INDEX 01 02:10:57
